<?xml version="1.0" standalone="no"?>
<!DOCTYPE svg PUBLIC "-//W3C//DTD SVG 20010904//EN"
 "http://www.w3.org/TR/2001/REC-SVG-20010904/DTD/svg10.dtd">
<svg version="1.0" xmlns="http://www.w3.org/2000/svg"
 width="512.000000pt" height="512.000000pt" viewBox="0 0 512.000000 512.000000"
 preserveAspectRatio="xMidYMid meet">
<metadata>
Created by potrace 1.14, written by Peter Selinger 2001-2017
</metadata>
<g transform="translate(0.000000,512.000000) scale(0.100000,-0.100000)"
fill="#000000" stroke="none">
<path d="M3130 5109 c-174 -33 -331 -154 -411 -314 -74 -149 -86 -309 -35
-455 34 -98 66 -148 152 -241 66 -70 75 -84 69 -107 -3 -15 -15 -36 -26 -47
-19 -20 -34 -20 -692 -21 -369 -1 -690 -4 -711 -8 -125 -21 -233 -120 -266
-246 -9 -33 -13 -229 -14 -727 l-1 -682 -22 -22 c-41 -41 -74 -31 -161 53
-204 195 -489 231 -720 91 -340 -206 -389 -661 -103 -939 220 -212 588 -211
810 4 36 35 75 70 86 77 28 20 62 15 88 -13 l22 -24 1 -586 c1 -323 4 -605 8
-627 16 -99 86 -189 184 -237 l67 -33 705 -3 c779 -3 752 -5 827 61 51 45 76
101 77 172 0 80 -21 120 -108 209 -78 79 -110 133 -134 226 -2 8 -5 49 -6 90
-10 238 198 443 439 434 114 -5 195 -38 277 -113 191 -174 191 -459 0 -636
-83 -77 -107 -125 -107 -212 1 -64 4 -76 34 -120 35 -52 74 -82 130 -101 25
-9 198 -11 655 -10 l621 3 55 26 c70 33 136 99 169 169 l26 55 0 635 c0 599
-1 637 -19 672 -40 82 -113 129 -204 133 -78 4 -126 -19 -212 -103 -75 -73
-167 -129 -226 -138 -167 -25 -300 14 -402 118 -252 256 -107 680 250 730 145
20 257 -23 380 -144 61 -61 89 -80 128 -92 121 -36 237 18 289 134 20 44 20
63 20 740 0 641 -1 699 -18 747 -43 125 -122 195 -261 230 -8 2 -283 5 -610 7
-327 1 -602 6 -612 10 -21 10 -41 59 -34 84 4 10 35 47 69 83 102 104 156 206
175 333 29 186 -30 369 -163 502 -118 118 -243 174 -400 179 -49 1 -110 -1
-135 -6z"/>
</g>
</svg>
